<?xml version="1.0" encoding="UTF-8" standalone="no"?>
<!-- Created with Inkscape (http://www.inkscape.org/) -->

<svg
   xmlns:dc="http://purl.org/dc/elements/1.1/"
   xmlns:cc="http://creativecommons.org/ns#"
   xmlns:rdf="http://www.w3.org/1999/02/22-rdf-syntax-ns#"
   xmlns:svg="http://www.w3.org/2000/svg"
   xmlns="http://www.w3.org/2000/svg"
   xmlns:sodipodi="http://sodipodi.sourceforge.net/DTD/sodipodi-0.dtd"
   xmlns:inkscape="http://www.inkscape.org/namespaces/inkscape"
   width="44.849285mm"
   height="67.537445mm"
   viewBox="0 0 158.91479 239.30591"
   id="svg2"
   version="1.1"
   inkscape:version="0.91 r13725"
   sodipodi:docname="ext_icon.svg">
  <defs
     id="defs4" />
  <sodipodi:namedview
     id="base"
     pagecolor="#ffffff"
     bordercolor="#666666"
     borderopacity="1.0"
     inkscape:pageopacity="0.0"
     inkscape:pageshadow="2"
     inkscape:zoom="0.35"
     inkscape:cx="-277.8026"
     inkscape:cy="-185.56054"
     inkscape:document-units="px"
     inkscape:current-layer="layer1"
     showgrid="false"
     fit-margin-top="0"
     fit-margin-left="0"
     fit-margin-right="0"
     fit-margin-bottom="0"
     inkscape:window-width="1920"
     inkscape:window-height="1054"
     inkscape:window-x="1920"
     inkscape:window-y="0"
     inkscape:window-maximized="1" />
  <metadata
     id="metadata7">
    <rdf:RDF>
      <cc:Work
         rdf:about="">
        <dc:format>image/svg+xml</dc:format>
        <dc:type
           rdf:resource="http://purl.org/dc/dcmitype/StillImage" />
        <dc:title></dc:title>
      </cc:Work>
    </rdf:RDF>
  </metadata>
  <g
     inkscape:label="Ebene 1"
     inkscape:groupmode="layer"
     id="layer1"
     transform="translate(-164.23117,-113.21004)">
    <path
       style="fill:#000000"
       d="m 239.07245,352.07267 c -6.1762,-1.51508 -9.9808,-4.81787 -13.62163,-11.82498 -8.51304,-16.38412 -57.77105,-122.33293 -59.39043,-127.74259 -2.43303,-8.12771 -2.44033,-29.11302 -0.0136,-39 5.43983,-22.16261 23.35718,-43.44055 45.17817,-53.65182 20.22653,-9.46514 46.95142,-8.76795 68.38413,1.78396 8.41645,4.14364 10.90919,6.03689 20.14262,15.29836 9.17676,9.20463 11.13939,11.79626 15.1986,20.0695 6.76464,13.78732 8.16463,19.93733 8.19504,36 0.0193,10.20553 -0.41591,14.96421 -1.78347,19.5 -1.65118,5.47644 -56.5386,123.65506 -60.96952,131.27405 -3.54804,6.10086 -13.87779,10.11916 -21.31995,8.29352 z m 21.34513,-123.01592 c 25.43925,-11.90446 30.98739,-45.95888 10.61361,-65.14633 -15.97978,-15.04932 -41.47684,-14.3891 -56.07875,1.45211 -8.41029,9.12409 -11.85528,18.77373 -10.99497,30.79765 1.19876,16.75423 14.75415,32.3821 31.11184,35.86852 7.3944,1.57601 18.38252,0.28772 25.34827,-2.97195 z"
       id="path4201"
       inkscape:connector-curvature="0" />
  </g>
</svg>
